<svg width="1920" height="1639" viewBox="0 0 1920 1639" fill="none" xmlns="http://www.w3.org/2000/svg">
<path d="M1091.75 936.908C1093.64 934.286 1089.72 933.317 1088.53 935.764C1087.35 938.211 1084.39 937.14 1083.37 936.519C1082.35 935.899 1078.49 936.533 1078.96 939.464C1079.21 940.557 1079.84 941.525 1080.74 942.194C1081.64 942.863 1082.75 943.188 1083.87 943.112C1085.17 943.131 1087.46 942.63 1088.72 945.018C1089.99 947.405 1094.06 944.876 1093.96 942.669C1093.86 940.462 1089.82 939.516 1091.75 936.908Z" stroke="url(#paint0_linear_320_991)" stroke-width="1.77526" stroke-miterlimit="10"/>
<path d="M1092.16 936.68C1094.38 933.867 1089.91 932.719 1088.69 935.272C1087.48 937.824 1084.05 936.622 1082.97 935.901C1081.9 935.179 1077.59 935.717 1078 938.944C1078.24 940.155 1078.9 941.241 1079.86 942.01C1080.83 942.779 1082.03 943.181 1083.27 943.144C1084.69 943.225 1087.22 942.764 1088.52 945.443C1089.82 948.123 1094.42 945.514 1094.39 943.044C1094.37 940.574 1090.05 939.608 1092.16 936.68Z" stroke="url(#paint1_linear_320_991)" stroke-width="1.77526" stroke-miterlimit="10"/>
<path d="M1092.8 936.715C1095.32 933.731 1090.56 932.218 1089.05 935.028C1087.53 937.838 1083.88 936.319 1082.71 935.516C1081.55 934.713 1076.83 935.082 1077.14 938.678C1077.36 940.01 1078.05 941.221 1079.07 942.1C1080.1 942.978 1081.4 943.467 1082.75 943.482C1084.33 943.606 1087.06 943.256 1088.42 946.208C1089.79 949.161 1094.9 946.525 1094.97 943.825C1095.03 941.126 1090.3 939.733 1092.8 936.715Z" stroke="url(#paint2_linear_320_991)" stroke-width="1.77526" stroke-miterlimit="10"/>
<path d="M1093.5 936.626C1096.39 933.433 1091.23 931.612 1089.38 934.527C1087.53 937.441 1083.64 935.744 1082.4 934.807C1081.16 933.87 1075.93 934.041 1076.16 938.038C1076.35 939.506 1077.05 940.86 1078.14 941.864C1079.23 942.868 1080.63 943.458 1082.11 943.533C1083.83 943.753 1086.93 943.418 1088.34 946.696C1089.76 949.975 1095.38 947.139 1095.65 944.325C1095.92 941.511 1090.56 939.892 1093.5 936.626Z" stroke="url(#paint3_linear_320_991)" stroke-width="1.77526" stroke-miterlimit="10"/>
<path d="M1094.14 936.662C1097.44 933.239 1091.82 931.011 1089.73 934.284C1087.64 937.556 1083.4 935.394 1082.02 934.222C1080.65 933.05 1074.97 933.21 1075.02 937.528C1075.16 939.164 1075.87 940.698 1077.03 941.858C1078.2 943.019 1079.73 943.73 1081.37 943.865C1083.27 944.163 1086.64 943.934 1087.96 947.667C1089.28 951.4 1095.74 948.624 1096.05 945.341C1096.36 942.058 1090.96 939.974 1094.14 936.662Z" stroke="url(#paint4_linear_320_991)" stroke-width="1.77526" stroke-miterlimit="10"/>
<path d="M1094.89 936.639C1098.69 933.018 1092.62 930.381 1090.16 933.863C1087.7 937.345 1083.16 934.818 1081.71 933.598C1080.27 932.378 1073.98 932.172 1073.9 936.964C1074.01 938.758 1074.75 940.457 1075.98 941.768C1077.21 943.079 1078.86 943.92 1080.64 944.145C1082.68 944.539 1086.43 944.412 1087.64 948.652C1088.84 952.892 1096.16 949.984 1096.63 946.434C1097.1 942.883 1091.14 940.276 1094.89 936.639Z" stroke="url(#paint5_linear_320_991)" stroke-width="1.77526" stroke-miterlimit="10"/>
<path d="M1095.75 936.681C1100.04 932.826 1093.47 929.68 1090.62 933.424C1087.77 937.169 1082.9 934.21 1081.39 932.803C1079.88 931.396 1072.93 930.949 1072.65 936.166C1072.67 938.147 1073.4 940.057 1074.69 941.555C1075.99 943.053 1077.78 944.043 1079.73 944.349C1081.99 944.887 1086.12 944.895 1087.42 949.527C1088.72 954.16 1096.73 951.303 1097.4 947.413C1098.08 943.523 1091.31 940.578 1095.75 936.681Z" stroke="url(#paint6_linear_320_991)" stroke-width="1.77526" stroke-miterlimit="10"/>
<path d="M1096.67 936.737C1101.52 932.697 1094.51 929.09 1091.17 932.981C1087.83 936.873 1082.55 933.434 1081.02 931.907C1079.49 930.38 1071.82 929.538 1071.29 935.252C1071.23 937.438 1071.95 939.574 1073.32 941.276C1074.69 942.978 1076.63 944.134 1078.78 944.538C1081.25 945.22 1085.77 945.363 1087.01 950.517C1088.25 955.672 1097.21 952.851 1098.08 948.675C1098.94 944.498 1091.79 940.795 1096.67 936.737Z" stroke="url(#paint7_linear_320_991)" stroke-width="1.77526" stroke-miterlimit="10"/>
<path d="M1097.68 936.874C1103.19 932.592 1095.57 928.222 1091.82 932.481C1088.06 936.739 1082.39 932.768 1080.67 930.905C1078.95 929.043 1070.55 927.773 1069.85 934.204C1069.7 936.602 1070.41 938.975 1071.85 940.897C1073.29 942.82 1075.37 944.167 1077.71 944.697C1080.37 945.543 1085.33 945.922 1086.53 951.631C1087.73 957.341 1097.57 954.594 1098.85 949.878C1100.12 945.162 1092.18 941.103 1097.68 936.874Z" stroke="url(#paint8_linear_320_991)" stroke-width="1.77526" stroke-miterlimit="10"/>
<path d="M1098.78 937.006C1105.11 932.526 1096.8 927.431 1092.52 931.994C1088.23 936.558 1082.16 931.882 1080.35 929.799C1078.55 927.716 1069.41 926.156 1068.29 933.008C1068.03 935.635 1068.72 938.267 1070.23 940.435C1071.74 942.603 1073.96 944.166 1076.51 944.846C1079.42 945.904 1084.86 946.499 1085.92 952.821C1086.98 959.143 1098 956.525 1099.43 951.455C1100.86 946.385 1092.56 941.463 1098.78 937.006Z" stroke="url(#paint9_linear_320_991)" stroke-width="1.77526" stroke-miterlimit="10"/>
<path d="M1100.02 937.235C1107.05 932.58 1098.16 926.617 1093.28 931.47C1088.41 936.324 1081.9 930.962 1080.01 928.572C1078.12 926.183 1068.16 924.113 1066.66 931.71C1065.16 939.307 1071.57 943.568 1075.24 945.034C1078.92 946.501 1084.36 947.183 1085.26 954.169C1086.17 961.156 1098.39 958.699 1100.16 953.214C1101.93 947.729 1092.98 941.89 1100.02 937.235Z" stroke="url(#paint10_linear_320_991)" stroke-width="1.77526" stroke-miterlimit="10"/>
<path d="M1101.33 937.512C1109.25 932.706 1099.78 925.789 1094.17 930.923C1088.56 936.056 1081.69 929.885 1079.68 927.207C1077.68 924.53 1066.87 921.831 1064.86 930.025C1062.86 938.219 1069.78 943.299 1073.77 945.025C1077.77 946.751 1083.7 947.736 1084.43 955.44C1085.16 963.145 1098.67 960.984 1100.83 955.011C1102.99 949.039 1093.42 942.352 1101.33 937.512Z" stroke="url(#paint11_linear_320_991)" stroke-width="1.77526" stroke-miterlimit="10"/>
<path d="M1102.78 937.885C1111.64 932.857 1101.51 924.937 1095.18 930.351C1088.84 935.765 1081.47 928.72 1079.26 925.76C1077.05 922.8 1065.37 919.352 1062.92 928.243C1060.47 937.134 1067.79 943.006 1072.17 945.178C1075.84 946.956 1082.96 948.552 1083.38 957.103C1083.79 965.653 1098.81 963.741 1101.46 957.225C1104.11 950.708 1093.9 942.879 1102.78 937.885Z" stroke="url(#paint12_linear_320_991)" stroke-width="1.77526" stroke-miterlimit="10"/>
<path d="M1104.34 938.373C1114.34 933.233 1103.49 924.038 1096.25 929.655C1089.01 935.272 1081.26 927.331 1079.09 923.902C1076.93 920.473 1064.04 916.293 1060.95 926.03C1057.87 935.767 1065.81 942.401 1070.38 944.909C1074.4 947.066 1082.14 949.061 1082.46 958.378C1082.78 967.694 1099.16 966.298 1102.31 959.271C1105.47 952.244 1094.38 943.493 1104.34 938.373Z" stroke="url(#paint13_linear_320_991)" stroke-width="1.77526" stroke-miterlimit="10"/>
<path d="M1106.08 938.938C1117.25 933.668 1105.65 923.164 1097.55 929.137C1089.45 935.111 1081.17 926.005 1078.95 922.164C1076.73 918.323 1062.68 913.202 1058.88 923.788C1055.09 934.375 1063.47 942.04 1068.53 944.937C1072.83 947.425 1081.27 949.954 1081.14 960.279C1081.01 970.604 1099.19 969.649 1102.91 962.039C1106.62 954.43 1094.82 944.04 1106.08 938.938Z" stroke="url(#paint14_linear_320_991)" stroke-width="1.77526" stroke-miterlimit="10"/>
<path d="M1107.93 939.619C1120.41 934.315 1108.13 922.291 1098.97 928.51C1089.81 934.729 1081.07 924.421 1078.77 920.134C1076.48 915.848 1061.27 909.612 1056.69 921.087C1052.1 932.561 1061 941.358 1066.41 944.72C1071.02 947.606 1080.24 950.717 1079.63 962.07C1079.01 973.422 1099.22 973.139 1103.44 964.933C1107.66 956.726 1095.44 944.976 1107.93 939.619Z" stroke="url(#paint15_linear_320_991)" stroke-width="1.77526" stroke-miterlimit="10"/>
<path d="M1109.97 940.463C1123.89 935.134 1110.83 921.423 1100.6 928.027C1090.37 934.63 1081.14 922.654 1078.41 917.855C1075.69 913.055 1059.6 905.586 1054.1 918.025C1048.61 930.464 1057.98 940.497 1063.87 944.387C1068.83 947.739 1078.8 951.536 1077.71 964.003C1076.62 976.469 1098.67 976.866 1103.86 968.021C1109.05 959.177 1096.03 945.844 1109.97 940.463Z" stroke="url(#paint16_linear_320_991)" stroke-width="1.77526" stroke-miterlimit="10"/>
<path d="M1112.15 941.489C1127.7 936.127 1113.9 920.571 1102.28 927.299C1090.65 934.028 1081.06 920.792 1078.65 915.371C1076.24 909.949 1058.44 901.188 1051.9 914.615C1045.37 928.041 1055.24 939.344 1061.57 944.006C1066.92 947.89 1077.78 952.557 1076.02 966.113C1074.26 979.669 1098.55 981.107 1104.64 971.575C1110.72 962.044 1096.6 946.851 1112.15 941.489Z" stroke="url(#paint17_linear_320_991)" stroke-width="1.77526" stroke-miterlimit="10"/>
<path d="M1114.64 942.602C1131.89 937.255 1117.38 919.662 1104.37 926.602C1091.35 933.542 1081.29 918.619 1078.71 912.671C1076.14 906.723 1057.09 896.229 1049.32 910.758C1041.54 925.286 1052.11 938.195 1058.94 943.367C1064.68 947.836 1076.39 953.304 1073.97 968.208C1071.56 983.112 1098.11 985.571 1105.2 975.383C1112.29 965.194 1097.21 947.925 1114.64 942.602Z" stroke="url(#paint18_linear_320_991)" stroke-width="1.77526" stroke-miterlimit="10"/>
<path d="M1117.03 944.084C1136.33 938.992 1120.99 918.989 1106.4 926.115C1091.8 933.242 1081.34 916.37 1078.92 909.67C1076.49 902.971 1055.75 890.735 1046.67 906.404C1037.59 922.072 1048.65 936.648 1055.82 942.701C1061.89 947.861 1074.54 954.266 1071.32 970.646C1068.1 987.027 1097.21 990.7 1105.38 979.763C1113.55 968.826 1097.82 949.171 1117.03 944.084Z" stroke="url(#paint19_linear_320_991)" stroke-width="1.77526" stroke-miterlimit="10"/>
<path d="M1119.8 945.753C1141.15 940.916 1125.12 918.288 1108.71 925.423C1092.3 932.559 1081.57 913.714 1079.15 906.253C1076.74 898.793 1054.47 884.494 1043.86 901.383C1033.26 918.273 1044.82 934.741 1052.46 941.633C1058.96 947.531 1072.61 955.179 1068.38 972.978C1064.15 990.777 1096.04 996.068 1105.44 984.34C1114.85 972.612 1098.45 950.59 1119.8 945.753Z" stroke="url(#paint20_linear_320_991)" stroke-width="1.77526" stroke-miterlimit="10"/>
<path d="M1122.75 947.672C1146.37 943.148 1129.69 917.737 1111.45 925.02C1093.22 932.303 1082.09 911.111 1079.71 902.784C1077.34 894.458 1053.38 877.794 1041.13 896.014C1028.88 914.234 1040.84 932.738 1048.97 940.641C1055.85 947.383 1070.58 956.288 1065.26 975.769C1059.94 995.25 1094.75 1002.25 1105.54 989.744C1116.32 977.235 1099.1 952.129 1122.75 947.672Z" stroke="url(#paint21_linear_320_991)" stroke-width="1.77526" stroke-miterlimit="10"/>
<path d="M1125.93 949.908C1152.11 945.923 1134.74 917.264 1114.42 924.536C1094.1 931.808 1082.64 908.092 1080.41 898.842C1078.17 889.592 1052.43 870.343 1038.21 889.859C1023.99 909.375 1036.48 930.202 1045.06 939.222C1052.41 946.942 1068.16 957.176 1061.58 978.434C1055.01 999.691 1092.97 1008.72 1105.33 995.407C1117.7 982.089 1099.75 953.892 1125.93 949.908Z" stroke="url(#paint22_linear_320_991)" stroke-width="1.77526" stroke-miterlimit="10"/>
<path d="M1129.16 952.555C1158.11 949.22 1140.09 917.07 1117.53 924.234C1094.97 931.399 1083.3 904.878 1081.15 894.603C1079 884.329 1051.65 862.313 1035.16 883.071C1018.67 903.83 1031.63 927.363 1040.72 937.601C1048.55 946.471 1065.47 958.389 1057.36 981.403C1049.26 1004.42 1090.65 1015.98 1104.75 1001.81C1118.86 987.645 1100.38 955.795 1129.16 952.555Z" stroke="url(#paint23_linear_320_991)" stroke-width="1.77526" stroke-miterlimit="10"/>
<path d="M1132.98 955.448C1164.93 952.941 1146.5 916.716 1121.26 923.848C1096.02 930.981 1084.37 901.209 1082.47 889.816C1080.58 878.422 1051.29 853.154 1032.35 875.303C1013.41 897.452 1026.71 923.854 1036.29 935.5C1044.5 945.439 1062.69 959.347 1052.81 984.252C1042.94 1009.16 1088.03 1023.55 1104.03 1008.44C1120.04 993.321 1101.13 957.898 1132.98 955.448Z" stroke="url(#paint24_linear_320_991)" stroke-width="1.77526" stroke-miterlimit="10"/>
<path d="M1136.86 958.84C1172.05 957.371 1153.22 916.899 1125.24 923.674C1097.27 930.448 1085.6 897.36 1083.93 884.727C1082.27 872.094 1051.11 843.14 1029.42 866.85C1007.73 890.561 1021.29 920.008 1031.51 933.107C1040.11 944.339 1059.54 960.376 1047.71 987.372C1035.87 1014.37 1084.86 1031.96 1103.16 1016.12C1121.46 1000.28 1101.63 960.327 1136.86 958.84Z" stroke="url(#paint25_linear_320_991)" stroke-width="1.77526" stroke-miterlimit="10"/>
<path d="M1140.99 962.753C1179.76 962.497 1160.63 917.304 1129.62 923.634C1098.6 929.964 1087.07 893.065 1085.73 879.136C1084.39 865.207 1051.32 832.102 1026.51 857.272C1001.7 882.443 1015.49 915.351 1026.04 930.266C1035.04 942.911 1055.77 961.317 1041.68 990.522C1027.59 1019.73 1080.77 1041.03 1101.48 1024.35C1122.19 1007.67 1102.2 962.975 1140.99 962.753Z" stroke="url(#paint26_linear_320_991)" stroke-width="1.77526" stroke-miterlimit="10"/>
<path d="M1145.33 967.209C1187.98 968.478 1168.76 918.018 1134.43 923.745C1100.09 929.471 1088.88 888.442 1087.94 873.093C1086.99 857.743 1051.95 820.075 1023.71 846.704C995.467 873.334 1009.26 910.149 1020.38 926.865C1029.79 941.182 1051.9 962.23 1035.27 993.849C1018.65 1025.47 1076.22 1050.93 1099.66 1033.42C1123.09 1015.91 1102.71 965.921 1145.33 967.209Z" stroke="url(#paint27_linear_320_991)" stroke-width="1.77526" stroke-miterlimit="10"/>
<path d="M1149.99 972.287C1196.83 975.393 1177.55 919.199 1139.69 924.038C1101.84 928.878 1091 883.422 1090.65 866.538C1090.3 849.654 1053.21 806.804 1021.11 835.002C989.007 863.2 1002.69 904.202 1014.23 923.213C1023.99 939.326 1047.41 963.312 1027.85 997.35C1008.3 1031.39 1070.64 1061.81 1097.07 1043.4C1123.5 1024.99 1103.11 969.201 1149.99 972.287Z" stroke="url(#paint28_linear_320_991)" stroke-width="1.77526" stroke-miterlimit="10"/>
<path d="M1154.89 978.027C1206.25 983.315 1187.46 920.717 1145.51 924.597C1103.56 928.476 1093.57 878.016 1093.86 859.439C1094.14 840.862 1055.07 792.258 1018.62 821.945C982.178 851.633 995.577 897.144 1007.45 918.453C1017.69 936.511 1042.36 963.871 1019.46 1000.38C996.556 1036.89 1063.84 1072.82 1093.73 1053.78C1123.61 1034.73 1103.54 972.774 1154.89 978.027Z" stroke="url(#paint29_linear_320_991)" stroke-width="1.77526" stroke-miterlimit="10"/>
<path d="M1160.07 984.582C1216.29 992.397 1198.12 922.837 1151.85 925.439C1105.58 928.042 1096.63 872.152 1097.65 851.739C1098.67 831.326 1057.67 776.359 1016.45 807.559C975.228 838.76 988.076 889.242 1000.4 913.31C1010.77 933.609 1036.97 964.621 1010.4 1003.97C983.827 1043.32 1056.34 1085.41 1089.79 1065.68C1123.23 1045.95 1103.83 976.733 1160.07 984.582Z" stroke="url(#paint30_linear_320_991)" stroke-width="1.77526" stroke-miterlimit="10"/>
<path d="M1165.45 991.956C1226.98 1002.79 1209.79 925.577 1158.83 926.629C1107.86 927.68 1100.21 865.864 1102.12 843.433C1104.04 821.003 1061.22 758.994 1014.65 791.633C968.073 824.272 980.324 880.507 992.732 907.145C1003.33 929.886 1030.89 965.009 1000.1 1007.24C969.305 1049.47 1047.46 1098.53 1085.05 1078.13C1122.64 1057.74 1103.96 981.099 1165.45 991.956Z" stroke="url(#paint31_linear_320_991)" stroke-width="1.77526" stroke-miterlimit="10"/>
<path d="M1171.11 1000.28C1238.32 1014.64 1222.47 929.076 1166.41 928.183C1110.35 927.29 1104.38 859.059 1107.41 834.531C1110.44 810.003 1065.77 740.037 1013.27 774.041C960.774 808.046 972.016 870.4 984.568 900.107C995.304 925.52 1024.2 965.257 988.685 1010.43C953.173 1055.61 1037.02 1112.75 1079.22 1091.78C1121.41 1070.81 1103.77 986 1171.11 1000.28Z" stroke="url(#paint32_linear_320_991)" stroke-width="1.77526" stroke-miterlimit="10"/>
<path d="M1177.01 1009.67C1250.31 1028.11 1236.3 933.431 1174.67 930.238C1113.05 927.045 1109.25 851.77 1113.56 824.876C1117.87 797.982 1071.47 719.414 1012.45 754.677C953.429 789.939 963.258 858.953 975.928 892.231C986.732 920.578 1016.91 965.398 976.082 1013.64C935.252 1061.87 1025.16 1128.05 1072.45 1106.67C1119.73 1085.3 1103.7 991.189 1177.01 1009.67Z" stroke="url(#paint33_linear_320_991)" stroke-width="1.77526" stroke-miterlimit="10"/>
<path d="M1183.11 1020.18C1262.89 1043.47 1251.3 938.761 1183.71 932.788C1116.11 926.814 1114.92 843.936 1120.71 814.562C1126.49 785.189 1078.7 696.894 1012.46 733.279C946.228 769.664 954.245 845.962 966.837 883.012C977.588 914.628 1008.98 965.105 962.181 1016.51C915.382 1067.91 1011.58 1144.23 1064.44 1122.67C1117.3 1101.1 1103.24 996.951 1183.11 1020.18Z" stroke="url(#paint34_linear_320_991)" stroke-width="1.77526" stroke-miterlimit="10"/>
<path d="M1189.4 1032.06C1276.27 1060.73 1267.61 945.215 1193.54 935.953C1119.46 926.691 1121.43 835.541 1128.97 803.482C1136.52 771.424 1087.46 672.445 1013.05 709.916C938.647 747.387 944.5 831.524 956.945 872.696C967.504 907.882 1000.17 964.514 946.496 1019.29C892.822 1074.06 995.781 1161.67 1054.62 1139.86C1113.47 1118.05 1102.52 1003.35 1189.4 1032.06Z" stroke="url(#paint35_linear_320_991)" stroke-width="1.77526" stroke-miterlimit="10"/>
<path d="M1195.86 1045.3C1290.17 1080.31 1285.42 952.905 1204.21 939.834C1123 926.764 1128.91 826.593 1138.5 791.644C1148.09 756.696 1098.08 645.963 1014.89 684.293C931.695 722.623 934.76 815.22 946.588 861.09C956.799 900.2 990.335 963.838 929.275 1021.78C868.215 1079.72 977.764 1180.28 1043.4 1158.79C1109.03 1137.3 1101.48 1010.28 1195.86 1045.3Z" stroke="url(#paint36_linear_320_991)" stroke-width="1.77526" stroke-miterlimit="10"/>
<path d="M1202.37 1060.15C1304.73 1102.36 1304.46 962.291 1215.76 944.55C1127.07 926.809 1137.52 817.05 1149.41 778.973C1161.31 740.896 1110.84 617.156 1017.7 655.939C924.561 694.722 924.486 796.644 935.648 847.595C945.32 890.917 979.622 962.24 910.237 1023.57C840.852 1084.91 957.251 1199.72 1030.26 1178.71C1103.26 1157.7 1100.03 1017.89 1202.37 1060.15Z" stroke="url(#paint37_linear_320_991)" stroke-width="1.77526" stroke-miterlimit="10"/>
<path d="M1209.02 1076.7C1319.71 1127.04 1325.04 973.153 1228.31 950.165C1131.58 927.177 1147.37 806.888 1161.96 765.507C1176.55 724.126 1125.97 586.255 1022.06 624.981C918.145 663.708 913.898 776.028 924.283 832.257C933.241 880.421 968.049 960.065 889.334 1024.74C810.619 1089.42 934.03 1220.27 1015.13 1200.07C1096.24 1179.88 1098.19 1026.22 1209.02 1076.7Z" stroke="url(#paint38_linear_320_991)" stroke-width="1.77526" stroke-miterlimit="10"/>
<path d="M1215.6 1095.2C1335.46 1155.11 1347.26 985.882 1241.87 956.85C1136.47 927.819 1158.56 796.104 1176.25 751.19C1193.93 706.276 1143.76 552.552 1028.06 591.223C912.359 629.895 903.164 752.966 912.4 815.304C920.377 868.463 955.457 957.581 866.355 1025.53C777.252 1093.48 907.688 1242.27 997.666 1223.25C1087.65 1204.23 1095.78 1035.26 1215.6 1095.2Z" stroke="url(#paint39_linear_320_991)" stroke-width="1.77526" stroke-miterlimit="10"/>
<path d="M1222.16 1115.83C1351.52 1186.47 1371.26 1000.88 1256.56 964.755C1141.85 928.626 1171.43 784.626 1192.64 735.984C1213.85 687.342 1164.81 516.293 1036.19 554.088C907.562 591.883 892.429 726.932 900.108 795.833C906.656 854.683 941.844 954.079 841.133 1025.11C740.422 1096.15 877.944 1265 977.606 1247.72C1077.27 1230.44 1092.9 1045.06 1222.16 1115.83Z" stroke="url(#paint40_linear_320_991)" stroke-width="1.77526" stroke-miterlimit="10"/>
<path d="M1228.5 1138.64C1367.91 1221.45 1396.99 1018.23 1272.28 973.936C1147.58 929.639 1185.81 772.655 1211.06 720.033C1236.31 667.411 1189.21 477.421 1046.17 513.899C903.137 550.377 881.258 698.172 886.982 774.262C891.825 839.181 926.477 949.753 813.024 1023.98C699.571 1098.2 843.957 1289.17 954.21 1274.13C1064.46 1259.1 1089.13 1055.85 1228.5 1138.64Z" stroke="url(#paint41_linear_320_991)" stroke-width="1.77526" stroke-miterlimit="10"/>
<path d="M1234.62 1164.06C1384.56 1260.64 1424.67 1038.47 1289.29 984.744C1153.91 931.017 1202.2 760.024 1232.05 703.151C1261.9 646.278 1217.74 435.498 1058.97 469.984C900.207 504.471 870.341 666.028 873.605 749.904C876.36 821.466 910.07 944.375 782.372 1021.49C654.673 1098.61 805.906 1314.31 927.645 1302.07C1049.38 1289.84 1084.65 1067.49 1234.62 1164.06Z" stroke="url(#paint42_linear_320_991)" stroke-width="1.77526" stroke-miterlimit="10"/>
<path d="M1240.26 1192.23C1401.28 1304.35 1454.16 1061.58 1307.52 997.25C1160.88 932.915 1220.72 746.763 1255.82 685.45C1290.92 624.136 1250.62 390.702 1074.78 422.231C898.944 453.761 859.664 630.243 859.882 722.592C860.179 801.317 892.235 937.811 748.789 1017.52C605.344 1097.22 762.975 1340.31 897.368 1331.77C1031.76 1323.22 1079.26 1080.13 1240.26 1192.23Z" stroke="url(#paint43_linear_320_991)" stroke-width="1.77526" stroke-miterlimit="10"/>
<path d="M1245.41 1223.43C1417.98 1353.09 1485.74 1088.3 1327.04 1011.95C1168.35 935.599 1241.59 733.102 1282.6 667.106C1323.6 601.109 1288.6 342.838 1094.04 370.529C899.466 398.22 849.291 590.691 845.877 692.2C842.924 778.805 872.871 930.117 712.109 1012.15C551.348 1094.18 714.856 1367.57 862.95 1363.54C1011.04 1359.52 1072.86 1093.79 1245.41 1223.43Z" stroke="url(#paint44_linear_320_991)" stroke-width="1.77526" stroke-miterlimit="10"/>
<path d="M1249.81 1257.93C1434.38 1407.33 1519.37 1118.96 1348.01 1028.5C1176.65 938.032 1265.19 718.694 1312.84 647.595C1360.48 576.497 1332.31 291.373 1117.41 314.048C902.511 336.723 839.565 546.335 831.764 657.788C825.128 752.916 852.088 920.39 671.934 1004.06C491.781 1087.74 660.831 1394.9 823.8 1396.36C986.769 1397.83 1065.25 1108.54 1249.81 1257.93Z" stroke="url(#paint45_linear_320_991)" stroke-width="1.77526" stroke-miterlimit="10"/>
<path d="M1253.12 1296.13C1450.04 1467.71 1554.98 1154.04 1370.18 1047.78C1185.38 941.515 1291.57 703.724 1346.82 627.56C1402.06 551.397 1382.41 236.721 1145.15 253.138C907.884 269.556 830.483 497.487 817.476 619.704C806.413 724 829.326 909.21 627.992 994.031C426.658 1078.85 600.272 1423.22 779.333 1431.31C958.395 1439.4 1056.32 1124.47 1253.12 1296.13Z" stroke="url(#paint46_linear_320_991)" stroke-width="1.77526" stroke-miterlimit="10"/>
<path d="M1255.58 1338.08C1465.27 1534.5 1593.08 1193.88 1394.16 1069.71C1195.25 945.542 1321.18 688.342 1384.96 606.891C1448.75 525.44 1439.63 178.652 1178.01 187.413C916.388 196.175 822.395 443.504 803.301 577.517C786.986 691.715 804.757 896.173 580.133 981.473C355.51 1066.77 532.541 1452.2 729.113 1468.24C925.685 1484.27 1045.7 1141.73 1255.58 1338.08Z" stroke="url(#paint47_linear_320_991)" stroke-width="1.77526" stroke-miterlimit="10"/>
<path d="M1256.42 1384.38C1479.08 1608.58 1633.19 1239.24 1419.44 1094.86C1205.69 950.489 1354.3 672.57 1427.73 585.686C1501.17 498.802 1504.83 117.071 1216.94 115.978C929.057 114.884 815.857 383.496 789.44 529.783C767.08 654.6 778.411 880.239 528.026 965.026C277.641 1049.81 457.153 1480.82 672.571 1506.22C887.988 1531.62 1033.7 1160.07 1256.42 1384.38Z" stroke="url(#paint48_linear_320_991)" stroke-width="1.77526" stroke-miterlimit="10"/>
<path d="M1255.5 1435.31C1491.45 1690.75 1675.47 1290.77 1446.24 1123.49C1217.01 956.22 1391.47 656.843 1475.59 564.075C1559.71 471.307 1578.96 51.979 1262.65 39.5027C946.34 27.0264 810.991 317.523 776.199 477.438C746.499 613.873 750.16 862.279 471.523 945.525C192.886 1028.77 372.989 1509.54 608.832 1546.07C844.675 1582.6 1019.6 1179.88 1255.5 1435.31Z" stroke="url(#paint49_linear_320_991)" stroke-width="1.77526" stroke-miterlimit="10"/>
<path d="M1252.51 1491.27C1501.52 1781.54 1719.92 1349.01 1474.57 1156.05C1229.22 963.098 1432.91 640.875 1529.13 542.304C1625.36 443.733 1663.07 -16.6441 1315.81 -42.9286C968.542 -69.2131 808.259 244.75 763.634 419.162C725.563 567.98 719.708 841.22 409.999 921.553C100.289 1001.88 279.292 1537.73 537.091 1587.22C794.891 1636.71 1003.28 1201.08 1252.51 1491.27Z" stroke="url(#paint50_linear_320_991)" stroke-width="1.77526" stroke-miterlimit="10"/>
<path d="M1246.95 1552.64C1509.39 1881.58 1766.49 1414.88 1504.35 1192.98C1242.22 971.074 1479.07 624.936 1588.63 520.393C1698.19 415.85 1758.26 -88.7182 1377.54 -131.427C996.82 -174.136 808.114 164.651 752.12 354.61C704.359 516.692 687.077 816.871 343.461 892.97C-0.154716 969.068 175.309 1565.22 456.715 1629.81C738.12 1694.4 984.52 1223.7 1246.95 1552.64Z" stroke="url(#paint51_linear_320_991)" stroke-width="1.77526" stroke-miterlimit="10"/>
<path d="M1238.41 1619.92C1513.85 1991.97 1815.16 1489.01 1535.72 1234.73C1256.28 980.446 1530.52 609.271 1655.02 498.742C1779.51 388.213 1865.76 -164.221 1448.9 -226.273C1032.04 -288.326 811.129 76.5912 742.122 283.342C683.164 459.631 652.218 788.906 271.47 858.918C-109.278 928.93 59.8816 1591.32 366.666 1673.49C673.451 1755.67 962.978 1247.9 1238.41 1619.92Z" stroke="url(#paint52_linear_320_991)" stroke-width="1.77526" stroke-miterlimit="10"/>
<path d="M1226.35 1693.54C1514.37 2113.48 1865.45 1572.65 1568.53 1281.92C1271.6 991.186 1587.63 594.088 1729.23 477.354C1870.83 360.621 1986.96 -242.933 1531.14 -327.74C1075.33 -412.548 817.994 -20.0875 733.821 204.276C662.065 395.858 614.864 756.544 193.519 818.352C-227.826 880.161 -68.2724 1615 265.788 1717.64C599.848 1820.29 938.333 1273.6 1226.35 1693.54Z" stroke="url(#paint53_linear_320_991)" stroke-width="1.77526" stroke-miterlimit="10"/>
<path d="M1210.18 1773.98C1510.14 2247.18 1917.58 1666.47 1602.72 1335.06C1287.86 1003.66 1651.04 579.628 1811.22 457.01C1971.41 334.392 2123.28 -324.633 1625.54 -436.015C1127.8 -547.397 829.307 -126.211 727.997 117.061C641.328 324.825 575.235 719.704 109.558 770.947C-356.12 822.19 -209.951 1636.2 153.219 1762.3C516.389 1888.41 910.229 1300.86 1210.18 1773.98Z" stroke="url(#paint54_linear_320_991)" stroke-width="1.77526" stroke-miterlimit="10"/>
<path d="M1189.2 1861.8C1500.13 2393.83 1971.14 1771.73 1638.16 1394.87C1305.19 1018.01 1721.34 566.361 1902.12 437.961C2082.89 309.561 2276.31 -408.887 1733.55 -551.123C1190.79 -693.359 846.111 -242.285 724.932 21.1802C621.477 245.969 533.105 677.36 19.107 715.155C-494.891 752.949 -366.559 1653.84 27.7016 1806.9C421.962 1959.96 878.251 1329.75 1189.2 1861.8Z" stroke="url(#paint55_linear_320_991)" stroke-width="1.77526" stroke-miterlimit="10"/>
<defs>
<linearGradient id="paint0_linear_320_991" x1="1085.1" y1="929.722" x2="1085.1" y2="929.722" gradientUnits="userSpaceOnUse">
<stop stop-color="#B615FF"/>
<stop offset="0.07" stop-color="#AD15FF"/>
<stop offset="0.2" stop-color="#9315FF"/>
<stop offset="0.35" stop-color="#6A15FF"/>
<stop offset="0.54" stop-color="#3115FF"/>
<stop offset="0.57" stop-color="#2615FF"/>
<stop offset="0.87" stop-color="#0075BE"/>
<stop offset="0.99" stop-color="#005B97"/>
</linearGradient>
<linearGradient id="paint1_linear_320_991" x1="1069.67" y1="1018.75" x2="1070" y2="1019.33" gradientUnits="userSpaceOnUse">
<stop stop-color="#B615FF"/>
<stop offset="0.07" stop-color="#AD15FF"/>
<stop offset="0.2" stop-color="#9315FF"/>
<stop offset="0.35" stop-color="#6A15FF"/>
<stop offset="0.54" stop-color="#3115FF"/>
<stop offset="0.57" stop-color="#2615FF"/>
<stop offset="0.87" stop-color="#0075BE"/>
<stop offset="0.99" stop-color="#005B97"/>
</linearGradient>
<linearGradient id="paint2_linear_320_991" x1="1067.92" y1="1024.87" x2="1068.31" y2="1025.56" gradientUnits="userSpaceOnUse">
<stop stop-color="#B615FF"/>
<stop offset="0.07" stop-color="#AD15FF"/>
<stop offset="0.2" stop-color="#9315FF"/>
<stop offset="0.35" stop-color="#6A15FF"/>
<stop offset="0.54" stop-color="#3115FF"/>
<stop offset="0.57" stop-color="#2615FF"/>
<stop offset="0.87" stop-color="#0075BE"/>
<stop offset="0.99" stop-color="#005B97"/>
</linearGradient>
<linearGradient id="paint3_linear_320_991" x1="1098.87" y1="1032.4" x2="1099.55" y2="1033.04" gradientUnits="userSpaceOnUse">
<stop stop-color="#B615FF"/>
<stop offset="0.07" stop-color="#AD15FF"/>
<stop offset="0.2" stop-color="#9315FF"/>
<stop offset="0.35" stop-color="#6A15FF"/>
<stop offset="0.54" stop-color="#3115FF"/>
<stop offset="0.57" stop-color="#2615FF"/>
<stop offset="0.87" stop-color="#0075BE"/>
<stop offset="0.99" stop-color="#005B97"/>
</linearGradient>
<linearGradient id="paint4_linear_320_991" x1="1063.45" y1="1038.94" x2="1064" y2="1039.91" gradientUnits="userSpaceOnUse">
<stop stop-color="#B615FF"/>
<stop offset="0.07" stop-color="#AD15FF"/>
<stop offset="0.2" stop-color="#9315FF"/>
<stop offset="0.35" stop-color="#6A15FF"/>
<stop offset="0.54" stop-color="#3115FF"/>
<stop offset="0.57" stop-color="#2615FF"/>
<stop offset="0.87" stop-color="#0075BE"/>
<stop offset="0.99" stop-color="#005B97"/>
</linearGradient>
<linearGradient id="paint5_linear_320_991" x1="1090.45" y1="1049.42" x2="1091.35" y2="1050.38" gradientUnits="userSpaceOnUse">
<stop stop-color="#B615FF"/>
<stop offset="0.07" stop-color="#AD15FF"/>
<stop offset="0.2" stop-color="#9315FF"/>
<stop offset="0.35" stop-color="#6A15FF"/>
<stop offset="0.54" stop-color="#3115FF"/>
<stop offset="0.57" stop-color="#2615FF"/>
<stop offset="0.87" stop-color="#0075BE"/>
<stop offset="0.99" stop-color="#005B97"/>
</linearGradient>
<linearGradient id="paint6_linear_320_991" x1="1058.06" y1="1055.6" x2="1058.83" y2="1056.95" gradientUnits="userSpaceOnUse">
<stop stop-color="#B615FF"/>
<stop offset="0.07" stop-color="#AD15FF"/>
<stop offset="0.2" stop-color="#9315FF"/>
<stop offset="0.35" stop-color="#6A15FF"/>
<stop offset="0.54" stop-color="#3115FF"/>
<stop offset="0.57" stop-color="#2615FF"/>
<stop offset="0.87" stop-color="#0075BE"/>
<stop offset="0.99" stop-color="#005B97"/>
</linearGradient>
<linearGradient id="paint7_linear_320_991" x1="1007.6" y1="981.972" x2="1102.84" y2="1149.82" gradientUnits="userSpaceOnUse">
<stop stop-color="#B615FF"/>
<stop offset="0.07" stop-color="#AD15FF"/>
<stop offset="0.2" stop-color="#9315FF"/>
<stop offset="0.35" stop-color="#6A15FF"/>
<stop offset="0.54" stop-color="#3115FF"/>
<stop offset="0.57" stop-color="#2615FF"/>
<stop offset="0.87" stop-color="#0075BE"/>
<stop offset="0.99" stop-color="#005B97"/>
</linearGradient>
<linearGradient id="paint8_linear_320_991" x1="1008.84" y1="995.825" x2="1135.05" y2="1163.98" gradientUnits="userSpaceOnUse">
<stop stop-color="#B615FF"/>
<stop offset="0.07" stop-color="#AD15FF"/>
<stop offset="0.2" stop-color="#9315FF"/>
<stop offset="0.35" stop-color="#6A15FF"/>
<stop offset="0.54" stop-color="#3115FF"/>
<stop offset="0.57" stop-color="#2615FF"/>
<stop offset="0.87" stop-color="#0075BE"/>
<stop offset="0.99" stop-color="#005B97"/>
</linearGradient>
<linearGradient id="paint9_linear_320_991" x1="998.317" y1="996.892" x2="1129.24" y2="1185.12" gradientUnits="userSpaceOnUse">
<stop stop-color="#B615FF"/>
<stop offset="0.07" stop-color="#AD15FF"/>
<stop offset="0.2" stop-color="#9315FF"/>
<stop offset="0.35" stop-color="#6A15FF"/>
<stop offset="0.54" stop-color="#3115FF"/>
<stop offset="0.57" stop-color="#2615FF"/>
<stop offset="0.87" stop-color="#0075BE"/>
<stop offset="0.99" stop-color="#005B97"/>
</linearGradient>
<linearGradient id="paint10_linear_320_991" x1="986.396" y1="997.803" x2="1121.68" y2="1208.12" gradientUnits="userSpaceOnUse">
<stop stop-color="#B615FF"/>
<stop offset="0.07" stop-color="#AD15FF"/>
<stop offset="0.2" stop-color="#9315FF"/>
<stop offset="0.35" stop-color="#6A15FF"/>
<stop offset="0.54" stop-color="#3115FF"/>
<stop offset="0.57" stop-color="#2615FF"/>
<stop offset="0.87" stop-color="#0075BE"/>
<stop offset="0.99" stop-color="#005B97"/>
</linearGradient>
<linearGradient id="paint11_linear_320_991" x1="855.249" y1="1085.02" x2="1132.44" y2="1552.2" gradientUnits="userSpaceOnUse">
<stop stop-color="#B615FF"/>
<stop offset="0.07" stop-color="#AD15FF"/>
<stop offset="0.2" stop-color="#9315FF"/>
<stop offset="0.35" stop-color="#6A15FF"/>
<stop offset="0.54" stop-color="#3115FF"/>
<stop offset="0.57" stop-color="#2615FF"/>
<stop offset="0.87" stop-color="#0075BE"/>
<stop offset="0.99" stop-color="#005B97"/>
</linearGradient>
<linearGradient id="paint12_linear_320_991" x1="824.773" y1="1087.78" x2="1107.26" y2="1605.87" gradientUnits="userSpaceOnUse">
<stop stop-color="#B615FF"/>
<stop offset="0.07" stop-color="#AD15FF"/>
<stop offset="0.2" stop-color="#9315FF"/>
<stop offset="0.35" stop-color="#6A15FF"/>
<stop offset="0.54" stop-color="#3115FF"/>
<stop offset="0.57" stop-color="#2615FF"/>
<stop offset="0.87" stop-color="#0075BE"/>
<stop offset="0.99" stop-color="#005B97"/>
</linearGradient>
<linearGradient id="paint13_linear_320_991" x1="802.218" y1="1105.02" x2="1117.31" y2="1660.33" gradientUnits="userSpaceOnUse">
<stop stop-color="#B615FF"/>
<stop offset="0.07" stop-color="#AD15FF"/>
<stop offset="0.2" stop-color="#9315FF"/>
<stop offset="0.35" stop-color="#6A15FF"/>
<stop offset="0.54" stop-color="#3115FF"/>
<stop offset="0.57" stop-color="#2615FF"/>
<stop offset="0.87" stop-color="#0075BE"/>
<stop offset="0.99" stop-color="#005B97"/>
</linearGradient>
<linearGradient id="paint14_linear_320_991" x1="773.864" y1="1119.24" x2="1115.81" y2="1721.87" gradientUnits="userSpaceOnUse">
<stop stop-color="#B615FF"/>
<stop offset="0.07" stop-color="#AD15FF"/>
<stop offset="0.2" stop-color="#9315FF"/>
<stop offset="0.35" stop-color="#6A15FF"/>
<stop offset="0.54" stop-color="#3115FF"/>
<stop offset="0.57" stop-color="#2615FF"/>
<stop offset="0.87" stop-color="#0075BE"/>
<stop offset="0.99" stop-color="#005B97"/>
</linearGradient>
<linearGradient id="paint15_linear_320_991" x1="716.427" y1="1088.45" x2="1001.95" y2="1781.49" gradientUnits="userSpaceOnUse">
<stop stop-color="#B615FF"/>
<stop offset="0.07" stop-color="#AD15FF"/>
<stop offset="0.2" stop-color="#9315FF"/>
<stop offset="0.35" stop-color="#6A15FF"/>
<stop offset="0.54" stop-color="#3115FF"/>
<stop offset="0.57" stop-color="#2615FF"/>
<stop offset="0.87" stop-color="#0075BE"/>
<stop offset="0.99" stop-color="#005B97"/>
</linearGradient>
<linearGradient id="paint16_linear_320_991" x1="709.454" y1="1152" x2="1111.17" y2="1859.99" gradientUnits="userSpaceOnUse">
<stop stop-color="#B615FF"/>
<stop offset="0.07" stop-color="#AD15FF"/>
<stop offset="0.2" stop-color="#9315FF"/>
<stop offset="0.35" stop-color="#6A15FF"/>
<stop offset="0.54" stop-color="#3115FF"/>
<stop offset="0.57" stop-color="#2615FF"/>
<stop offset="0.87" stop-color="#0075BE"/>
<stop offset="0.99" stop-color="#005B97"/>
</linearGradient>
<linearGradient id="paint17_linear_320_991" x1="387.046" y1="1174.4" x2="798.784" y2="2422.95" gradientUnits="userSpaceOnUse">
<stop stop-color="#B615FF"/>
<stop offset="0.07" stop-color="#AD15FF"/>
<stop offset="0.2" stop-color="#9315FF"/>
<stop offset="0.35" stop-color="#6A15FF"/>
<stop offset="0.54" stop-color="#3115FF"/>
<stop offset="0.57" stop-color="#2615FF"/>
<stop offset="0.87" stop-color="#0075BE"/>
<stop offset="0.99" stop-color="#005B97"/>
</linearGradient>
<linearGradient id="paint18_linear_320_991" x1="243.224" y1="1104.82" x2="532.896" y2="2576.37" gradientUnits="userSpaceOnUse">
<stop stop-color="#B615FF"/>
<stop offset="0.07" stop-color="#AD15FF"/>
<stop offset="0.2" stop-color="#9315FF"/>
<stop offset="0.35" stop-color="#6A15FF"/>
<stop offset="0.54" stop-color="#3115FF"/>
<stop offset="0.57" stop-color="#2615FF"/>
<stop offset="0.87" stop-color="#0075BE"/>
<stop offset="0.99" stop-color="#005B97"/>
</linearGradient>
<linearGradient id="paint19_linear_320_991" x1="223.744" y1="1151.93" x2="601.025" y2="2652.72" gradientUnits="userSpaceOnUse">
<stop stop-color="#B615FF"/>
<stop offset="0.07" stop-color="#AD15FF"/>
<stop offset="0.2" stop-color="#9315FF"/>
<stop offset="0.35" stop-color="#6A15FF"/>
<stop offset="0.54" stop-color="#3115FF"/>
<stop offset="0.57" stop-color="#2615FF"/>
<stop offset="0.87" stop-color="#0075BE"/>
<stop offset="0.99" stop-color="#005B97"/>
</linearGradient>
<linearGradient id="paint20_linear_320_991" x1="-196.606" y1="1218.26" x2="280.31" y2="3454.08" gradientUnits="userSpaceOnUse">
<stop stop-color="#B615FF"/>
<stop offset="0.07" stop-color="#AD15FF"/>
<stop offset="0.2" stop-color="#9315FF"/>
<stop offset="0.35" stop-color="#6A15FF"/>
<stop offset="0.54" stop-color="#3115FF"/>
<stop offset="0.57" stop-color="#2615FF"/>
<stop offset="0.87" stop-color="#0075BE"/>
<stop offset="0.99" stop-color="#005B97"/>
</linearGradient>
<linearGradient id="paint21_linear_320_991" x1="-331.965" y1="1188.49" x2="106.186" y2="3680.71" gradientUnits="userSpaceOnUse">
<stop stop-color="#B615FF"/>
<stop offset="0.07" stop-color="#AD15FF"/>
<stop offset="0.2" stop-color="#9315FF"/>
<stop offset="0.35" stop-color="#6A15FF"/>
<stop offset="0.54" stop-color="#3115FF"/>
<stop offset="0.57" stop-color="#2615FF"/>
<stop offset="0.87" stop-color="#0075BE"/>
<stop offset="0.99" stop-color="#005B97"/>
</linearGradient>
<linearGradient id="paint22_linear_320_991" x1="-475.826" y1="1150.05" x2="-91.1086" y2="3922.15" gradientUnits="userSpaceOnUse">
<stop stop-color="#B615FF"/>
<stop offset="0.07" stop-color="#AD15FF"/>
<stop offset="0.2" stop-color="#9315FF"/>
<stop offset="0.35" stop-color="#6A15FF"/>
<stop offset="0.54" stop-color="#3115FF"/>
<stop offset="0.57" stop-color="#2615FF"/>
<stop offset="0.87" stop-color="#0075BE"/>
<stop offset="0.99" stop-color="#005B97"/>
</linearGradient>
<linearGradient id="paint23_linear_320_991" x1="-1072.77" y1="1161.4" x2="-680.287" y2="5004.57" gradientUnits="userSpaceOnUse">
<stop stop-color="#B615FF"/>
<stop offset="0.07" stop-color="#AD15FF"/>
<stop offset="0.2" stop-color="#9315FF"/>
<stop offset="0.35" stop-color="#6A15FF"/>
<stop offset="0.54" stop-color="#3115FF"/>
<stop offset="0.57" stop-color="#2615FF"/>
<stop offset="0.87" stop-color="#0075BE"/>
<stop offset="0.99" stop-color="#005B97"/>
</linearGradient>
<linearGradient id="paint24_linear_320_991" x1="-1442.68" y1="1288.87" x2="-821.041" y2="5844.81" gradientUnits="userSpaceOnUse">
<stop stop-color="#B615FF"/>
<stop offset="0.07" stop-color="#AD15FF"/>
<stop offset="0.2" stop-color="#9315FF"/>
<stop offset="0.35" stop-color="#6A15FF"/>
<stop offset="0.54" stop-color="#3115FF"/>
<stop offset="0.57" stop-color="#2615FF"/>
<stop offset="0.87" stop-color="#0075BE"/>
<stop offset="0.99" stop-color="#005B97"/>
</linearGradient>
<linearGradient id="paint25_linear_320_991" x1="-2037.72" y1="1032.1" x2="-1871.11" y2="6675.33" gradientUnits="userSpaceOnUse">
<stop stop-color="#B615FF"/>
<stop offset="0.07" stop-color="#AD15FF"/>
<stop offset="0.2" stop-color="#9315FF"/>
<stop offset="0.35" stop-color="#6A15FF"/>
<stop offset="0.54" stop-color="#3115FF"/>
<stop offset="0.57" stop-color="#2615FF"/>
<stop offset="0.87" stop-color="#0075BE"/>
<stop offset="0.99" stop-color="#005B97"/>
</linearGradient>
<linearGradient id="paint26_linear_320_991" x1="-2227.53" y1="847.019" x2="-2374.63" y2="6897.96" gradientUnits="userSpaceOnUse">
<stop stop-color="#B615FF"/>
<stop offset="0.07" stop-color="#AD15FF"/>
<stop offset="0.2" stop-color="#9315FF"/>
<stop offset="0.35" stop-color="#6A15FF"/>
<stop offset="0.54" stop-color="#3115FF"/>
<stop offset="0.57" stop-color="#2615FF"/>
<stop offset="0.87" stop-color="#0075BE"/>
<stop offset="0.99" stop-color="#005B97"/>
</linearGradient>
<linearGradient id="paint27_linear_320_991" x1="-3398.13" y1="613.131" x2="-3989.73" y2="8828.31" gradientUnits="userSpaceOnUse">
<stop stop-color="#B615FF"/>
<stop offset="0.07" stop-color="#AD15FF"/>
<stop offset="0.2" stop-color="#9315FF"/>
<stop offset="0.35" stop-color="#6A15FF"/>
<stop offset="0.54" stop-color="#3115FF"/>
<stop offset="0.57" stop-color="#2615FF"/>
<stop offset="0.87" stop-color="#0075BE"/>
<stop offset="0.99" stop-color="#005B97"/>
</linearGradient>
<linearGradient id="paint28_linear_320_991" x1="-4342.84" y1="509.778" x2="-5135.39" y2="10537.9" gradientUnits="userSpaceOnUse">
<stop stop-color="#B615FF"/>
<stop offset="0.07" stop-color="#AD15FF"/>
<stop offset="0.2" stop-color="#9315FF"/>
<stop offset="0.35" stop-color="#6A15FF"/>
<stop offset="0.54" stop-color="#3115FF"/>
<stop offset="0.57" stop-color="#2615FF"/>
<stop offset="0.87" stop-color="#0075BE"/>
<stop offset="0.99" stop-color="#005B97"/>
</linearGradient>
<linearGradient id="paint29_linear_320_991" x1="-4796.78" y1="246.655" x2="-6068.1" y2="11236.3" gradientUnits="userSpaceOnUse">
<stop stop-color="#B615FF"/>
<stop offset="0.07" stop-color="#AD15FF"/>
<stop offset="0.2" stop-color="#9315FF"/>
<stop offset="0.35" stop-color="#6A15FF"/>
<stop offset="0.54" stop-color="#3115FF"/>
<stop offset="0.57" stop-color="#2615FF"/>
<stop offset="0.87" stop-color="#0075BE"/>
<stop offset="0.99" stop-color="#005B97"/>
</linearGradient>
<linearGradient id="paint30_linear_320_991" x1="-6232.23" y1="-500.012" x2="-8911.89" y2="13247" gradientUnits="userSpaceOnUse">
<stop stop-color="#B615FF"/>
<stop offset="0.07" stop-color="#AD15FF"/>
<stop offset="0.2" stop-color="#9315FF"/>
<stop offset="0.35" stop-color="#6A15FF"/>
<stop offset="0.54" stop-color="#3115FF"/>
<stop offset="0.57" stop-color="#2615FF"/>
<stop offset="0.87" stop-color="#0075BE"/>
<stop offset="0.99" stop-color="#005B97"/>
</linearGradient>
<linearGradient id="paint31_linear_320_991" x1="-7553.28" y1="-710.876" x2="-10661.1" y2="15675.7" gradientUnits="userSpaceOnUse">
<stop stop-color="#B615FF"/>
<stop offset="0.07" stop-color="#AD15FF"/>
<stop offset="0.2" stop-color="#9315FF"/>
<stop offset="0.35" stop-color="#6A15FF"/>
<stop offset="0.54" stop-color="#3115FF"/>
<stop offset="0.57" stop-color="#2615FF"/>
<stop offset="0.87" stop-color="#0075BE"/>
<stop offset="0.99" stop-color="#005B97"/>
</linearGradient>
<linearGradient id="paint32_linear_320_991" x1="-9171.21" y1="-1406.48" x2="-13632.7" y2="18216.8" gradientUnits="userSpaceOnUse">
<stop stop-color="#B615FF"/>
<stop offset="0.07" stop-color="#AD15FF"/>
<stop offset="0.2" stop-color="#9315FF"/>
<stop offset="0.35" stop-color="#6A15FF"/>
<stop offset="0.54" stop-color="#3115FF"/>
<stop offset="0.57" stop-color="#2615FF"/>
<stop offset="0.87" stop-color="#0075BE"/>
<stop offset="0.99" stop-color="#005B97"/>
</linearGradient>
<linearGradient id="paint33_linear_320_991" x1="-11678.4" y1="-2592.46" x2="-18468.1" y2="22009.1" gradientUnits="userSpaceOnUse">
<stop stop-color="#B615FF"/>
<stop offset="0.07" stop-color="#AD15FF"/>
<stop offset="0.2" stop-color="#9315FF"/>
<stop offset="0.35" stop-color="#6A15FF"/>
<stop offset="0.54" stop-color="#3115FF"/>
<stop offset="0.57" stop-color="#2615FF"/>
<stop offset="0.87" stop-color="#0075BE"/>
<stop offset="0.99" stop-color="#005B97"/>
</linearGradient>
<linearGradient id="paint34_linear_320_991" x1="-12941.9" y1="-3359.09" x2="-21260.1" y2="23935.7" gradientUnits="userSpaceOnUse">
<stop stop-color="#B615FF"/>
<stop offset="0.07" stop-color="#AD15FF"/>
<stop offset="0.2" stop-color="#9315FF"/>
<stop offset="0.35" stop-color="#6A15FF"/>
<stop offset="0.54" stop-color="#3115FF"/>
<stop offset="0.57" stop-color="#2615FF"/>
<stop offset="0.87" stop-color="#0075BE"/>
<stop offset="0.99" stop-color="#005B97"/>
</linearGradient>
<linearGradient id="paint35_linear_320_991" x1="-16193.2" y1="-4743.06" x2="-27331.7" y2="29224.7" gradientUnits="userSpaceOnUse">
<stop stop-color="#B615FF"/>
<stop offset="0.07" stop-color="#AD15FF"/>
<stop offset="0.2" stop-color="#9315FF"/>
<stop offset="0.35" stop-color="#6A15FF"/>
<stop offset="0.54" stop-color="#3115FF"/>
<stop offset="0.57" stop-color="#2615FF"/>
<stop offset="0.87" stop-color="#0075BE"/>
<stop offset="0.99" stop-color="#005B97"/>
</linearGradient>
<linearGradient id="paint36_linear_320_991" x1="-18766.8" y1="-6745.72" x2="-34187.7" y2="33241.7" gradientUnits="userSpaceOnUse">
<stop stop-color="#B615FF"/>
<stop offset="0.07" stop-color="#AD15FF"/>
<stop offset="0.2" stop-color="#9315FF"/>
<stop offset="0.35" stop-color="#6A15FF"/>
<stop offset="0.54" stop-color="#3115FF"/>
<stop offset="0.57" stop-color="#2615FF"/>
<stop offset="0.87" stop-color="#0075BE"/>
<stop offset="0.99" stop-color="#005B97"/>
</linearGradient>
<linearGradient id="paint37_linear_320_991" x1="-23202.9" y1="-9480.84" x2="-44526.1" y2="40368.6" gradientUnits="userSpaceOnUse">
<stop stop-color="#B615FF"/>
<stop offset="0.07" stop-color="#AD15FF"/>
<stop offset="0.2" stop-color="#9315FF"/>
<stop offset="0.35" stop-color="#6A15FF"/>
<stop offset="0.54" stop-color="#3115FF"/>
<stop offset="0.57" stop-color="#2615FF"/>
<stop offset="0.87" stop-color="#0075BE"/>
<stop offset="0.99" stop-color="#005B97"/>
</linearGradient>
<linearGradient id="paint38_linear_320_991" x1="-27149" y1="-12831.2" x2="-55863.1" y2="46249.8" gradientUnits="userSpaceOnUse">
<stop stop-color="#B615FF"/>
<stop offset="0.07" stop-color="#AD15FF"/>
<stop offset="0.2" stop-color="#9315FF"/>
<stop offset="0.35" stop-color="#6A15FF"/>
<stop offset="0.54" stop-color="#3115FF"/>
<stop offset="0.57" stop-color="#2615FF"/>
<stop offset="0.87" stop-color="#0075BE"/>
<stop offset="0.99" stop-color="#005B97"/>
</linearGradient>
<linearGradient id="paint39_linear_320_991" x1="-33723.5" y1="-17073.4" x2="-72042.7" y2="57172.3" gradientUnits="userSpaceOnUse">
<stop stop-color="#B615FF"/>
<stop offset="0.07" stop-color="#AD15FF"/>
<stop offset="0.2" stop-color="#9315FF"/>
<stop offset="0.35" stop-color="#6A15FF"/>
<stop offset="0.54" stop-color="#3115FF"/>
<stop offset="0.57" stop-color="#2615FF"/>
<stop offset="0.87" stop-color="#0075BE"/>
<stop offset="0.99" stop-color="#005B97"/>
</linearGradient>
<linearGradient id="paint40_linear_320_991" x1="-39888.2" y1="-22182.9" x2="-90013.3" y2="66888.1" gradientUnits="userSpaceOnUse">
<stop stop-color="#B615FF"/>
<stop offset="0.07" stop-color="#AD15FF"/>
<stop offset="0.2" stop-color="#9315FF"/>
<stop offset="0.35" stop-color="#6A15FF"/>
<stop offset="0.54" stop-color="#3115FF"/>
<stop offset="0.57" stop-color="#2615FF"/>
<stop offset="0.87" stop-color="#0075BE"/>
<stop offset="0.99" stop-color="#005B97"/>
</linearGradient>
<linearGradient id="paint41_linear_320_991" x1="-46669" y1="-28342.2" x2="-111402" y2="77546.4" gradientUnits="userSpaceOnUse">
<stop stop-color="#B615FF"/>
<stop offset="0.07" stop-color="#AD15FF"/>
<stop offset="0.2" stop-color="#9315FF"/>
<stop offset="0.35" stop-color="#6A15FF"/>
<stop offset="0.54" stop-color="#3115FF"/>
<stop offset="0.57" stop-color="#2615FF"/>
<stop offset="0.87" stop-color="#0075BE"/>
<stop offset="0.99" stop-color="#005B97"/>
</linearGradient>
<linearGradient id="paint42_linear_320_991" x1="-56091.4" y1="-37023.8" x2="-141673" y2="92232.3" gradientUnits="userSpaceOnUse">
<stop stop-color="#B615FF"/>
<stop offset="0.07" stop-color="#AD15FF"/>
<stop offset="0.2" stop-color="#9315FF"/>
<stop offset="0.35" stop-color="#6A15FF"/>
<stop offset="0.54" stop-color="#3115FF"/>
<stop offset="0.57" stop-color="#2615FF"/>
<stop offset="0.87" stop-color="#0075BE"/>
<stop offset="0.99" stop-color="#005B97"/>
</linearGradient>
<linearGradient id="paint43_linear_320_991" x1="-66441.9" y1="-47502.1" x2="-177791" y2="108150" gradientUnits="userSpaceOnUse">
<stop stop-color="#B615FF"/>
<stop offset="0.07" stop-color="#AD15FF"/>
<stop offset="0.2" stop-color="#9315FF"/>
<stop offset="0.35" stop-color="#6A15FF"/>
<stop offset="0.54" stop-color="#3115FF"/>
<stop offset="0.57" stop-color="#2615FF"/>
<stop offset="0.87" stop-color="#0075BE"/>
<stop offset="0.99" stop-color="#005B97"/>
</linearGradient>
<linearGradient id="paint44_linear_320_991" x1="-77728.1" y1="-60037.5" x2="-220664" y2="125242" gradientUnits="userSpaceOnUse">
<stop stop-color="#B615FF"/>
<stop offset="0.07" stop-color="#AD15FF"/>
<stop offset="0.2" stop-color="#9315FF"/>
<stop offset="0.35" stop-color="#6A15FF"/>
<stop offset="0.54" stop-color="#3115FF"/>
<stop offset="0.57" stop-color="#2615FF"/>
<stop offset="0.87" stop-color="#0075BE"/>
<stop offset="0.99" stop-color="#005B97"/>
</linearGradient>
<linearGradient id="paint45_linear_320_991" x1="-92391" y1="-76936.3" x2="-278525" y2="147113" gradientUnits="userSpaceOnUse">
<stop stop-color="#B615FF"/>
<stop offset="0.07" stop-color="#AD15FF"/>
<stop offset="0.2" stop-color="#9315FF"/>
<stop offset="0.35" stop-color="#6A15FF"/>
<stop offset="0.54" stop-color="#3115FF"/>
<stop offset="0.57" stop-color="#2615FF"/>
<stop offset="0.87" stop-color="#0075BE"/>
<stop offset="0.99" stop-color="#005B97"/>
</linearGradient>
<linearGradient id="paint46_linear_320_991" x1="-105693" y1="-94786.3" x2="-339040" y2="166300" gradientUnits="userSpaceOnUse">
<stop stop-color="#B615FF"/>
<stop offset="0.07" stop-color="#AD15FF"/>
<stop offset="0.2" stop-color="#9315FF"/>
<stop offset="0.35" stop-color="#6A15FF"/>
<stop offset="0.54" stop-color="#3115FF"/>
<stop offset="0.57" stop-color="#2615FF"/>
<stop offset="0.87" stop-color="#0075BE"/>
<stop offset="0.99" stop-color="#005B97"/>
</linearGradient>
<linearGradient id="paint47_linear_320_991" x1="-125253" y1="-120871" x2="-428171" y2="194250" gradientUnits="userSpaceOnUse">
<stop stop-color="#B615FF"/>
<stop offset="0.07" stop-color="#AD15FF"/>
<stop offset="0.2" stop-color="#9315FF"/>
<stop offset="0.35" stop-color="#6A15FF"/>
<stop offset="0.54" stop-color="#3115FF"/>
<stop offset="0.57" stop-color="#2615FF"/>
<stop offset="0.87" stop-color="#0075BE"/>
<stop offset="0.99" stop-color="#005B97"/>
</linearGradient>
<linearGradient id="paint48_linear_320_991" x1="-145516" y1="-150572" x2="-529725" y2="222343" gradientUnits="userSpaceOnUse">
<stop stop-color="#B615FF"/>
<stop offset="0.07" stop-color="#AD15FF"/>
<stop offset="0.2" stop-color="#9315FF"/>
<stop offset="0.35" stop-color="#6A15FF"/>
<stop offset="0.54" stop-color="#3115FF"/>
<stop offset="0.57" stop-color="#2615FF"/>
<stop offset="0.87" stop-color="#0075BE"/>
<stop offset="0.99" stop-color="#005B97"/>
</linearGradient>
<linearGradient id="paint49_linear_320_991" x1="-165997" y1="-186031" x2="-649768" y2="247715" gradientUnits="userSpaceOnUse">
<stop stop-color="#B615FF"/>
<stop offset="0.07" stop-color="#AD15FF"/>
<stop offset="0.2" stop-color="#9315FF"/>
<stop offset="0.35" stop-color="#6A15FF"/>
<stop offset="0.54" stop-color="#3115FF"/>
<stop offset="0.57" stop-color="#2615FF"/>
<stop offset="0.87" stop-color="#0075BE"/>
<stop offset="0.99" stop-color="#005B97"/>
</linearGradient>
<linearGradient id="paint50_linear_320_991" x1="-191825" y1="-230397" x2="-802563" y2="280643" gradientUnits="userSpaceOnUse">
<stop stop-color="#B615FF"/>
<stop offset="0.07" stop-color="#AD15FF"/>
<stop offset="0.2" stop-color="#9315FF"/>
<stop offset="0.35" stop-color="#6A15FF"/>
<stop offset="0.54" stop-color="#3115FF"/>
<stop offset="0.57" stop-color="#2615FF"/>
<stop offset="0.87" stop-color="#0075BE"/>
<stop offset="0.99" stop-color="#005B97"/>
</linearGradient>
<linearGradient id="paint51_linear_320_991" x1="-222141" y1="-286440" x2="-996311" y2="317039" gradientUnits="userSpaceOnUse">
<stop stop-color="#B615FF"/>
<stop offset="0.07" stop-color="#AD15FF"/>
<stop offset="0.2" stop-color="#9315FF"/>
<stop offset="0.35" stop-color="#6A15FF"/>
<stop offset="0.54" stop-color="#3115FF"/>
<stop offset="0.57" stop-color="#2615FF"/>
<stop offset="0.87" stop-color="#0075BE"/>
<stop offset="0.99" stop-color="#005B97"/>
</linearGradient>
<linearGradient id="paint52_linear_320_991" x1="-251061" y1="-350237" x2="-1.21652e+06" y2="345588" gradientUnits="userSpaceOnUse">
<stop stop-color="#B615FF"/>
<stop offset="0.07" stop-color="#AD15FF"/>
<stop offset="0.2" stop-color="#9315FF"/>
<stop offset="0.35" stop-color="#6A15FF"/>
<stop offset="0.54" stop-color="#3115FF"/>
<stop offset="0.57" stop-color="#2615FF"/>
<stop offset="0.87" stop-color="#0075BE"/>
<stop offset="0.99" stop-color="#005B97"/>
</linearGradient>
<linearGradient id="paint53_linear_320_991" x1="-284591" y1="-428227" x2="-1.48888e+06" y2="376637" gradientUnits="userSpaceOnUse">
<stop stop-color="#B615FF"/>
<stop offset="0.07" stop-color="#AD15FF"/>
<stop offset="0.2" stop-color="#9315FF"/>
<stop offset="0.35" stop-color="#6A15FF"/>
<stop offset="0.54" stop-color="#3115FF"/>
<stop offset="0.57" stop-color="#2615FF"/>
<stop offset="0.87" stop-color="#0075BE"/>
<stop offset="0.99" stop-color="#005B97"/>
</linearGradient>
<linearGradient id="paint54_linear_320_991" x1="-323266" y1="-527681" x2="-1.83727e+06" y2="405241" gradientUnits="userSpaceOnUse">
<stop stop-color="#B615FF"/>
<stop offset="0.07" stop-color="#AD15FF"/>
<stop offset="0.2" stop-color="#9315FF"/>
<stop offset="0.35" stop-color="#6A15FF"/>
<stop offset="0.54" stop-color="#3115FF"/>
<stop offset="0.57" stop-color="#2615FF"/>
<stop offset="0.87" stop-color="#0075BE"/>
<stop offset="0.99" stop-color="#005B97"/>
</linearGradient>
<linearGradient id="paint55_linear_320_991" x1="-362857" y1="-643398" x2="-2.24662e+06" y2="425473" gradientUnits="userSpaceOnUse">
<stop stop-color="#B615FF"/>
<stop offset="0.07" stop-color="#AD15FF"/>
<stop offset="0.2" stop-color="#9315FF"/>
<stop offset="0.35" stop-color="#6A15FF"/>
<stop offset="0.54" stop-color="#3115FF"/>
<stop offset="0.57" stop-color="#2615FF"/>
<stop offset="0.87" stop-color="#0075BE"/>
<stop offset="0.99" stop-color="#005B97"/>
</linearGradient>
</defs>
</svg>
