<svg width="1749" height="1357" viewBox="0 0 1749 1357" fill="none" xmlns="http://www.w3.org/2000/svg">
<path d="M1263.41 0C1263.41 0 1227.99 40.7053 1353.24 238.464C1455.12 399.324 1401.03 460.942 1377.35 478.362C1374.47 480.477 1372.13 483.241 1370.52 486.431C1368.9 489.621 1368.07 493.146 1368.07 496.72V554.878L1347.99 497.693C1346.21 494.31 1345.46 490.487 1345.81 486.686C1346.17 482.884 1347.61 479.266 1349.98 476.269C1369.21 451.878 1411.17 382.613 1354.07 295.369C1312.63 231.72 1280.36 162.55 1258.22 89.8978C1254.44 76.5796 1252.59 62.7888 1252.71 48.9453C1252.71 45.6493 1252.71 14.3375 1263.41 0Z" fill="black"/>
<path d="M1263.41 1356.76C1263.41 1356.76 1227.99 1316.05 1353.24 1118.29C1455.12 957.431 1401.03 895.813 1377.35 878.394C1374.47 876.279 1372.13 873.514 1370.52 870.324C1368.9 867.134 1368.07 863.609 1368.07 860.035V801.878L1347.98 859.112C1346.21 862.495 1345.46 866.318 1345.81 870.119C1346.17 873.921 1347.61 877.539 1349.98 880.536C1369.21 904.91 1411.17 974.191 1354.07 1061.42C1312.63 1125.06 1280.36 1194.22 1258.22 1266.86C1254.44 1280.18 1252.58 1293.97 1252.71 1307.81C1252.71 1311.11 1252.71 1342.42 1263.41 1356.76Z" fill="black"/>
<path d="M1168.67 278.768C1171.37 288.87 1173.45 298.955 1175.26 309.058C1175.13 319.143 1175.26 329.245 1175.26 339.331V490.748C1174.29 495.791 1173.31 500.916 1172.21 505.86L1170.56 513.425C1169.94 515.946 1169.38 518.468 1168.7 520.989C1168.02 518.468 1167.46 515.946 1166.84 513.425L1165.19 505.86C1164.09 500.801 1163.11 495.758 1162.14 490.715V339.414C1162.14 329.328 1162.14 319.226 1162.14 309.14C1163.87 298.955 1165.96 288.87 1168.67 278.768Z" fill="black"/>
<path d="M1157.13 199.104L1168.7 218.666L1180.2 199.253V199.319L1168.7 179.889L1157.13 199.434" fill="black"/>
<path d="M1168.67 1083.81C1165.96 1073.72 1163.87 1063.62 1162.08 1053.54C1162.21 1043.43 1162.08 1033.35 1162.08 1023.25V871.846C1163.05 866.77 1163.97 861.826 1165.12 856.701L1166.77 849.136C1167.4 846.615 1167.96 844.077 1168.63 841.556C1169.31 844.077 1169.87 846.615 1170.5 849.136L1172.14 856.701C1173.25 861.744 1174.22 866.803 1175.19 871.846V1023.33C1175.19 1033.43 1175.19 1043.52 1175.19 1053.62C1173.45 1063.62 1171.37 1073.72 1168.67 1083.81Z" fill="black"/>
<path d="M1157.13 1163.47L1168.7 1143.91L1180.2 1163.34V1163.26L1168.7 1182.69L1157.13 1163.14" fill="black"/>
<path d="M1108.83 607.725C1097.67 607.766 1086.57 606.025 1075.96 602.567C1065.26 599.272 1055.06 594.555 1045.62 588.543C1035.75 582.44 1027.2 574.422 1020.49 564.962C1017.15 559.994 1014.68 554.497 1013.18 548.704C1011.66 542.989 1011.69 536.975 1013.25 531.272L1014.25 531.189C1014.48 536.481 1015.75 541.675 1017.98 546.481C1020.18 551.292 1023.04 555.773 1026.48 559.798C1033.57 567.75 1041.8 574.609 1050.9 580.152C1059.91 585.931 1069.36 591.001 1079.16 595.316C1084.04 597.501 1088.98 599.53 1093.97 601.434C1098.97 603.338 1104.01 605.182 1109.1 606.785L1108.83 607.725Z" fill="black"/>
<path d="M1128.13 588.256C1119.57 588.63 1111.02 587.381 1102.93 584.575C1094.82 581.928 1087.16 578.068 1080.21 573.127C1072.86 568.069 1066.69 561.487 1062.12 553.83C1059.82 549.766 1058.28 545.313 1057.58 540.692C1056.86 536.134 1057.47 531.466 1059.31 527.238L1060.31 527.267C1060.29 531.225 1061.06 535.146 1062.57 538.806C1064.02 542.46 1065.98 545.895 1068.37 549.014C1073.42 555.229 1079.36 560.66 1086 565.13C1092.52 569.782 1099.38 573.925 1106.53 577.522C1110.09 579.342 1113.72 581.055 1117.43 582.696C1121.14 584.337 1124.77 585.917 1128.53 587.332L1128.13 588.256Z" fill="black"/>
<path d="M1163.32 580.257C1157.22 580.514 1151.15 579.313 1145.61 576.754C1140.18 574.357 1135.23 570.981 1131.01 566.793C1126.46 562.376 1123.06 556.924 1121.08 550.901C1120.07 547.656 1119.72 544.241 1120.04 540.858C1120.21 539.16 1120.63 537.498 1121.3 535.928C1121.91 534.373 1122.82 532.95 1123.98 531.739L1124.95 531.882C1124.55 534.504 1124.66 537.179 1125.29 539.758C1125.87 542.346 1126.81 544.842 1128.07 547.176C1130.74 551.823 1134.09 556.054 1137.99 559.735C1141.81 563.555 1145.92 567.083 1150.27 570.289C1152.45 571.907 1154.67 573.447 1156.94 574.944C1159.2 576.44 1161.49 577.958 1163.8 579.277L1163.32 580.257Z" fill="black"/>
<path d="M1220.47 567.532C1206.71 565.795 1193.09 564.416 1179.49 563.784C1165.89 563.152 1152.36 563.273 1139.11 564.971C1135.79 565.383 1132.51 565.924 1129.26 566.593C1126.01 567.23 1122.8 568.043 1119.64 568.977C1113.34 570.798 1107.28 573.385 1101.61 576.681C1098.8 578.34 1096.13 580.221 1093.62 582.307C1093.05 582.835 1092.49 583.311 1091.9 583.908C1091.3 584.504 1090.65 585.155 1090.01 585.754C1088.74 586.965 1087.44 588.153 1086.11 589.301C1083.45 591.622 1080.61 593.733 1077.62 595.614C1076.1 596.547 1074.51 597.345 1072.86 598C1072.03 598.327 1071.16 598.582 1070.29 598.763C1069.42 598.955 1068.53 598.993 1067.65 598.873C1069.32 598.568 1070.89 597.878 1072.24 596.858C1073.62 595.898 1074.93 594.836 1076.15 593.683C1078.61 591.362 1080.92 588.902 1083.09 586.316C1084.19 585.031 1085.26 583.726 1086.31 582.401L1087.87 580.411C1088.42 579.717 1089.08 578.972 1089.69 578.253C1090.93 576.921 1092.24 575.657 1093.62 574.466C1094.29 573.865 1095 573.308 1095.7 572.722C1096.39 572.137 1097.14 571.627 1097.86 571.079C1103.76 566.881 1110.25 563.573 1117.11 561.262C1120.51 560.104 1123.96 559.129 1127.46 558.34C1130.95 557.568 1134.47 556.965 1137.99 556.497C1152.1 554.702 1166.27 555.208 1180.1 557.11C1187.01 558.077 1193.86 559.415 1200.62 561.12C1203.98 561.979 1207.33 562.916 1210.64 563.967C1213.95 565.018 1217.27 566.191 1220.47 567.532Z" fill="black"/>
<path d="M91.1313 695.754L107.678 667L124.131 695.561V695.439L107.678 724L91.1313 695.27" fill="black"/>
<path d="M255.878 756.665C259.42 765.658 263.508 772.198 268.14 776.285C272.773 780.373 277.269 782.553 281.629 782.825V791C265.279 790.183 244.569 789.774 219.499 789.774C191.704 789.774 170.994 790.183 157.369 791V782.825C167.724 782.28 175.081 781.054 179.441 779.146C183.801 776.966 185.981 773.288 185.981 768.11C185.981 763.205 184.346 756.665 181.076 748.49L153.69 673.28L113.224 562.918L67.4438 681.455L56.8163 709.659C49.1863 729.279 45.3713 744.403 45.3713 755.03C45.3713 765.113 48.3688 772.198 54.3638 776.285C60.6313 780.1 69.76 782.28 81.75 782.825V791C63.22 790.183 46.325 789.774 31.065 789.774C18.53 789.774 8.175 790.183 0 791V782.825C13.3525 780.373 25.07 766.066 35.1525 739.906L128.348 500.788C131.345 501.06 136.114 501.196 142.654 501.196C149.194 501.196 153.826 501.06 156.551 500.788L255.878 756.665Z" fill="black"/>
<path d="M617.635 752.986C617.635 764.159 619.543 771.925 623.358 776.285C627.445 780.373 634.258 782.416 643.795 782.416V791C616.545 789.91 598.56 789.365 589.84 789.365C582.21 789.365 565.315 789.91 539.155 791V782.416C546.513 782.416 551.554 780.373 554.279 776.285C557.276 772.198 558.775 764.431 558.775 752.986V625.865C558.775 614.42 557.004 605.973 553.461 600.523C550.191 594.8 543.788 591.939 534.25 591.939C524.168 591.939 515.311 596.163 507.681 604.61C500.324 613.058 495.964 623.413 494.601 635.675V752.986C494.601 764.159 496.236 771.925 499.506 776.285C503.049 780.373 509.316 782.416 518.309 782.416V791C492.149 789.91 474.981 789.365 466.806 789.365C459.176 789.365 442.281 789.91 416.121 791V782.416C423.479 782.416 428.52 780.373 431.245 776.285C434.243 771.925 435.741 764.159 435.741 752.986V625.865C435.741 614.42 434.243 605.973 431.245 600.523C428.248 594.8 422.389 591.939 413.669 591.939C402.769 591.939 393.368 596.571 385.465 605.836C377.835 614.829 374.02 626.001 374.02 639.354V752.986C374.02 764.159 375.383 771.925 378.108 776.285C381.105 780.373 386.283 782.416 393.64 782.416V791C369.66 789.91 353.583 789.365 345.408 789.365C337.233 789.365 318.43 789.91 289 791V782.416C298.81 782.416 305.623 780.373 309.438 776.285C313.253 771.925 315.16 764.159 315.16 752.986V624.23C315.16 611.695 313.253 602.566 309.438 596.844C305.623 591.121 298.81 588.26 289 588.26V579.676C297.72 580.494 306.168 580.903 314.343 580.903C338.595 580.903 358.488 578.995 374.02 575.18V611.968C386.01 586.625 407.129 573.954 437.376 573.954C458.086 573.954 473.074 579.268 482.339 589.895C487.516 595.345 490.923 603.52 492.558 614.42C499.643 599.705 508.908 589.35 520.353 583.355C531.798 577.088 545.15 573.954 560.41 573.954C581.12 573.954 596.108 579.268 605.373 589.895C609.733 594.8 612.866 601.476 614.774 609.924C616.681 618.371 617.635 629.408 617.635 643.033V752.986Z" fill="black"/>
<path d="M713.411 793.861C695.971 793.861 682.891 789.365 674.171 780.373C665.724 771.38 661.5 759.526 661.5 744.811C661.5 732.549 664.634 722.466 670.901 714.564C677.441 706.389 685.208 700.121 694.2 695.761C703.465 691.401 715.183 686.769 729.353 681.864C744.34 676.686 755.24 672.054 762.053 667.966C769.138 663.606 772.68 657.748 772.68 650.39V618.508C772.68 607.063 769.955 598.206 764.505 591.939C759.328 585.399 751.153 582.129 739.98 582.129C726.9 582.129 716.954 585.399 710.141 591.939C717.771 594.664 723.63 598.751 727.718 604.201C732.078 609.651 734.258 616.055 734.258 623.413C734.258 632.678 731.124 640.035 724.856 645.485C718.589 650.935 710.959 653.66 701.966 653.66C692.429 653.66 685.071 650.663 679.894 644.668C674.716 638.673 672.128 631.179 672.128 622.186C672.128 614.556 673.899 608.153 677.441 602.975C681.256 597.525 686.979 592.484 694.609 587.851C701.966 583.491 710.959 580.085 721.586 577.633C732.486 575.18 744.34 573.954 757.148 573.954C770.5 573.954 782.081 575.316 791.891 578.041C801.701 580.766 809.876 585.399 816.416 591.939C822.411 597.934 826.363 605.291 828.27 614.011C830.45 622.731 831.54 634.585 831.54 649.573V760.753C831.54 767.293 832.085 771.925 833.175 774.65C834.538 777.375 836.99 778.738 840.533 778.738C844.62 778.738 849.525 776.421 855.248 771.789L859.335 778.738C847.073 788.82 832.085 793.861 814.373 793.861C799.385 793.861 788.894 790.864 782.899 784.869C776.904 778.874 773.77 770.835 773.498 760.753C759.873 782.825 739.844 793.861 713.411 793.861ZM744.885 767.701C755.513 767.701 764.778 762.115 772.68 750.943V667.149C769.41 672.599 762.461 678.594 751.834 685.134C741.206 691.946 733.168 698.759 727.718 705.571C722.268 712.384 719.543 722.194 719.543 735.001C719.543 746.174 721.859 754.485 726.491 759.935C731.124 765.113 737.255 767.701 744.885 767.701Z" fill="black"/>
<path d="M940.93 784.869H962.185C979.625 784.869 994.34 779.146 1006.33 767.701C1018.32 755.984 1025.4 737.318 1027.58 711.703H1036.17C1036.17 750.398 1036.71 777.375 1037.8 792.635C1015.73 791.545 989.571 791 959.323 791C932.618 791 904.278 791.681 874.303 793.044L976.491 585.808H953.601C914.633 585.808 893.378 610.196 889.836 658.974H881.252C881.252 620.279 880.707 593.301 879.617 578.041C901.69 579.131 927.85 579.676 958.097 579.676C984.802 579.676 1013.14 578.995 1043.12 577.633L940.93 784.869Z" fill="black"/>
<path d="M1170.92 573.954C1202.26 573.954 1226.79 582.946 1244.5 600.931C1262.21 618.644 1271.07 646.848 1271.07 685.543C1271.07 724.238 1262.21 752.441 1244.5 770.154C1226.79 787.866 1202.26 796.723 1170.92 796.723C1139.86 796.723 1115.33 787.866 1097.35 770.154C1079.64 752.441 1070.78 724.238 1070.78 685.543C1070.78 646.848 1079.64 618.644 1097.35 600.931C1115.33 582.946 1139.86 573.954 1170.92 573.954ZM1170.92 582.129C1159.21 582.129 1149.8 590.713 1142.72 607.88C1135.91 624.775 1132.5 650.663 1132.5 685.543C1132.5 720.423 1135.91 746.31 1142.72 763.205C1149.8 780.1 1159.21 788.548 1170.92 788.548C1182.91 788.548 1192.31 780.236 1199.13 763.614C1205.94 746.719 1209.35 720.695 1209.35 685.543C1209.35 650.39 1205.8 624.366 1198.72 607.471C1191.91 590.576 1182.64 582.129 1170.92 582.129Z" fill="black"/>
<path d="M1449.07 573.954C1469.78 573.954 1484.76 579.268 1494.03 589.895C1498.66 595.073 1501.93 601.749 1503.84 609.924C1505.75 618.099 1506.7 629.135 1506.7 643.033V752.986C1506.7 764.159 1508.61 771.925 1512.42 776.285C1516.51 780.373 1523.32 782.416 1532.86 782.416V791C1505.61 789.91 1487.62 789.365 1478.9 789.365C1470.73 789.365 1453.02 789.91 1425.77 791V782.416C1433.94 782.416 1439.66 780.373 1442.93 776.285C1446.2 771.925 1447.84 764.159 1447.84 752.986V625.865C1447.84 614.693 1445.93 606.245 1442.12 600.523C1438.57 594.8 1432.03 591.939 1422.5 591.939C1411.32 591.939 1401.79 596.571 1393.88 605.836C1385.98 614.829 1382.03 626.001 1382.03 639.354V752.986C1382.03 764.159 1383.67 771.925 1386.94 776.285C1390.21 780.373 1395.93 782.416 1404.1 782.416V791C1379.03 789.91 1362.14 789.365 1353.42 789.365C1345.24 789.365 1326.44 789.91 1297.01 791V782.416C1306.82 782.416 1313.63 780.373 1317.45 776.285C1321.26 771.925 1323.17 764.159 1323.17 752.986V624.23C1323.17 611.695 1321.26 602.566 1317.45 596.844C1313.63 591.121 1306.82 588.26 1297.01 588.26V579.676C1305.73 580.494 1314.18 580.903 1322.35 580.903C1346.61 580.903 1366.5 578.995 1382.03 575.18V611.968C1394.29 586.625 1416.64 573.954 1449.07 573.954Z" fill="black"/>
<path d="M1602.47 793.861C1585.03 793.861 1571.95 789.365 1563.23 780.373C1554.78 771.38 1550.56 759.526 1550.56 744.811C1550.56 732.549 1553.69 722.466 1559.96 714.564C1566.5 706.389 1574.27 700.121 1583.26 695.761C1592.52 691.401 1604.24 686.769 1618.41 681.864C1633.4 676.686 1644.3 672.054 1651.11 667.966C1658.2 663.606 1661.74 657.748 1661.74 650.39V618.508C1661.74 607.063 1659.01 598.206 1653.56 591.939C1648.39 585.399 1640.21 582.129 1629.04 582.129C1615.96 582.129 1606.01 585.399 1599.2 591.939C1606.83 594.664 1612.69 598.751 1616.78 604.201C1621.14 609.651 1623.32 616.055 1623.32 623.413C1623.32 632.678 1620.18 640.035 1613.91 645.485C1607.65 650.935 1600.02 653.66 1591.02 653.66C1581.49 653.66 1574.13 650.663 1568.95 644.668C1563.77 638.673 1561.19 631.179 1561.19 622.186C1561.19 614.556 1562.96 608.153 1566.5 602.975C1570.31 597.525 1576.04 592.484 1583.67 587.851C1591.02 583.491 1600.02 580.085 1610.64 577.633C1621.54 575.18 1633.4 573.954 1646.21 573.954C1659.56 573.954 1671.14 575.316 1680.95 578.041C1690.76 580.766 1698.93 585.399 1705.47 591.939C1711.47 597.934 1715.42 605.291 1717.33 614.011C1719.51 622.731 1720.6 634.585 1720.6 649.573V760.753C1720.6 767.293 1721.14 771.925 1722.23 774.65C1723.6 777.375 1726.05 778.738 1729.59 778.738C1733.68 778.738 1738.58 776.421 1744.31 771.789L1748.39 778.738C1736.13 788.82 1721.14 793.861 1703.43 793.861C1688.44 793.861 1677.95 790.864 1671.96 784.869C1665.96 778.874 1662.83 770.835 1662.56 760.753C1648.93 782.825 1628.9 793.861 1602.47 793.861ZM1633.94 767.701C1644.57 767.701 1653.84 762.115 1661.74 750.943V667.149C1658.47 672.599 1651.52 678.594 1640.89 685.134C1630.26 691.946 1622.23 698.759 1616.78 705.571C1611.33 712.384 1608.6 722.194 1608.6 735.001C1608.6 746.174 1610.92 754.485 1615.55 759.935C1620.18 765.113 1626.31 767.701 1633.94 767.701Z" fill="black"/>
</svg>
