<svg width="80" height="80" viewBox="0 0 80 80" fill="none" xmlns="http://www.w3.org/2000/svg">
<path d="M40.4004 22.3648C46.2746 22.3648 46.9705 22.3873 49.2903 22.4931C51.4353 22.5909 52.6001 22.9493 53.3754 23.2506C54.4023 23.6497 55.1351 24.1264 55.9049 24.8962C56.6748 25.6661 57.1516 26.399 57.5506 27.4259C57.8519 28.2011 58.2103 29.366 58.3081 31.5109C58.414 33.8307 58.4364 34.5266 58.4364 40.4008C58.4364 46.275 58.414 46.9709 58.3081 49.2907C58.2103 51.4356 57.8519 52.6005 57.5506 53.3757C57.1516 54.4026 56.6748 55.1355 55.905 55.9053C55.1351 56.6752 54.4023 57.1519 53.3754 57.551C52.6001 57.8523 51.4353 58.2107 49.2903 58.3085C46.9708 58.4143 46.2751 58.4368 40.4004 58.4368C34.5257 58.4368 33.8301 58.4143 31.5105 58.3085C29.3655 58.2107 28.2006 57.8523 27.4254 57.551C26.3985 57.1519 25.6657 56.6752 24.8958 55.9053C24.126 55.1355 23.6492 54.4026 23.2501 53.3757C22.9488 52.6005 22.5904 51.4356 22.4926 49.2907C22.3868 46.9709 22.3643 46.275 22.3643 40.4008C22.3643 34.5266 22.3868 33.8307 22.4926 31.5109C22.5904 29.366 22.9488 28.2011 23.2501 27.4259C23.6492 26.399 24.126 25.6661 24.8958 24.8963C25.6657 24.1264 26.3985 23.6497 27.4254 23.2506C28.2006 22.9493 29.3655 22.5909 31.5105 22.4931C33.8303 22.3873 34.5262 22.3648 40.4004 22.3648ZM40.4004 18.4009C34.4255 18.4009 33.6764 18.4262 31.3298 18.5333C28.9882 18.6401 27.3889 19.012 25.9896 19.5558C24.5429 20.118 23.316 20.8703 22.0928 22.0933C20.8698 23.3164 20.1175 24.5433 19.5554 25.99C19.0115 27.3894 18.6396 28.9886 18.5328 31.3303C18.4257 33.6768 18.4004 34.426 18.4004 40.4008C18.4004 46.3756 18.4257 47.1248 18.5328 49.4713C18.6396 51.813 19.0115 53.4122 19.5554 54.8116C20.1175 56.2583 20.8698 57.4852 22.0928 58.7083C23.316 59.9313 24.5429 60.6836 25.9896 61.2457C27.3889 61.7896 28.9882 62.1615 31.3298 62.2683C33.6764 62.3754 34.4255 62.4007 40.4004 62.4007C46.3752 62.4007 47.1244 62.3754 49.471 62.2683C51.8126 62.1615 53.4119 61.7896 54.8112 61.2457C56.2579 60.6836 57.4848 59.9313 58.7079 58.7083C59.931 57.4852 60.6832 56.2583 61.2455 54.8116C61.7893 53.4122 62.1612 51.813 62.268 49.4713C62.3751 47.1248 62.4004 46.3756 62.4004 40.4008C62.4004 34.426 62.3751 33.6768 62.268 31.3303C62.1612 28.9886 61.7893 27.3894 61.2455 25.99C60.6832 24.5433 59.931 23.3164 58.7079 22.0933C57.4848 20.8703 56.2579 20.118 54.8112 19.5558C53.4119 19.012 51.8126 18.6401 49.471 18.5333C47.1244 18.4262 46.3752 18.4009 40.4004 18.4009Z" fill="white"/>
<path d="M40.4113 29.1136C34.1719 29.1136 29.1139 34.1715 29.1139 40.4108C29.1139 46.6502 34.1719 51.7081 40.4113 51.7081C46.6506 51.7081 51.7085 46.6502 51.7085 40.4108C51.7085 34.1715 46.6506 29.1136 40.4113 29.1136ZM40.4113 47.7442C36.3611 47.7442 33.0779 44.4609 33.0779 40.4108C33.0779 36.3608 36.3611 33.0775 40.4113 33.0775C44.4613 33.0775 47.7445 36.3608 47.7445 40.4108C47.7445 44.4609 44.4613 47.7442 40.4113 47.7442Z" fill="white"/>
<path d="M54.7933 28.6608C54.7933 30.1187 53.6113 31.3007 52.1533 31.3007C50.6953 31.3007 49.5133 30.1187 49.5133 28.6608C49.5133 27.2027 50.6953 26.0207 52.1533 26.0207C53.6113 26.0207 54.7933 27.2027 54.7933 28.6608Z" fill="white"/>
</svg>
