<svg width="80" height="80" viewBox="0 0 80 80" fill="none" xmlns="http://www.w3.org/2000/svg">
<path fill-rule="evenodd" clip-rule="evenodd" d="M62.4624 25.2931C60.813 26.056 59.0381 26.5697 57.1764 26.8017C59.0769 25.6153 60.5364 23.7377 61.2227 21.5004C59.4463 22.5996 57.474 23.3952 55.379 23.8265C53.6998 21.9644 51.3057 20.7998 48.6605 20.7998C43.5779 20.7998 39.4568 25.0907 39.4568 30.3826C39.4568 31.1331 39.539 31.8648 39.696 32.567C32.0459 32.1684 25.2646 28.3524 20.7248 22.5544C19.9323 23.9697 19.4792 25.6154 19.4792 27.3716C19.4792 30.6956 21.1017 33.6288 23.5734 35.3477C22.0632 35.2978 20.6456 34.8666 19.403 34.1488V34.2687C19.403 38.913 22.5775 42.7851 26.7854 43.6678C26.0138 43.8858 25.2003 44.0041 24.3615 44.0041C23.7678 44.0041 23.1906 43.9434 22.6284 43.8313C23.7992 47.638 27.1996 50.4093 31.2265 50.4871C28.0774 53.056 24.1088 54.5896 19.7962 54.5896C19.0516 54.5896 18.3189 54.5444 17.5996 54.4541C21.6729 57.1725 26.5102 58.7606 31.708 58.7606C48.6366 58.7606 57.8941 44.1582 57.8941 31.4958C57.8941 31.0801 57.8867 30.666 57.8672 30.2565C59.6676 28.902 61.2287 27.2143 62.4624 25.2931Z" fill="white"/>
</svg>
