<svg width="808" height="1489" viewBox="0 0 808 1489" fill="none" xmlns="http://www.w3.org/2000/svg">
<path d="M223.622 1434.75C325.718 1495.78 456.767 1504.85 616.77 1461.98C859.274 1397 984.308 1158.62 1055.08 922.725C1010.03 1044.6 938.751 1118.6 841.249 1144.73C771.248 1163.48 708.636 1154.82 653.414 1118.73C597.523 1080.14 555.852 1009.62 528.401 907.176C496.932 789.735 497.829 693.081 531.092 617.215C564.354 541.348 621.367 459.118 702.13 370.524C774.832 293.659 821.7 227.986 842.734 173.504C847.501 161.156 847.391 147.629 843.965 134.844L808.018 0.68709C826.095 68.1533 807.989 130.585 753.701 187.982C701.243 242.21 612.624 311.484 487.842 395.804C369.892 475.616 273.772 546.899 199.483 609.655C127.694 671.742 71.8424 748.305 31.9275 839.344C-6.15688 927.215 -10.1344 1027.37 19.9948 1139.82C56.1498 1274.75 124.026 1373.06 223.622 1434.75Z" fill="url(#paint0_linear_320:169)" fill-opacity="0.8" style="mix-blend-mode:lighten"/>
<defs>
<linearGradient id="paint0_linear_320:169" x1="319" y1="88.687" x2="319" y2="1495" gradientUnits="userSpaceOnUse">
<stop offset="0.355435" stop-color="#6B47D2" stop-opacity="0.8"/>
<stop offset="1" stop-color="#6B47D2" stop-opacity="0"/>
</linearGradient>
</defs>
</svg>
