<svg width="528" height="837" viewBox="0 0 528 837" fill="none" xmlns="http://www.w3.org/2000/svg">
<g filter="url(#filter0_d_311:92)">
<mask id="path-1-inside-1_311:92" fill="white">
<path d="M40 421.877L264.64 40L488 419.305V417.695L264.64 797L40 415.445"/>
</mask>
<path d="M264.64 40L268.949 37.4629L264.638 30.1425L260.33 37.4648L264.64 40ZM488 419.305L483.692 421.842L493 437.65V419.305H488ZM488 417.695H493V399.35L483.692 415.158L488 417.695ZM264.64 797L260.331 799.537L264.64 806.854L268.949 799.537L264.64 797ZM44.3096 424.413L268.95 42.5352L260.33 37.4648L35.6904 419.342L44.3096 424.413ZM260.332 42.5371L483.692 421.842L492.308 416.768L268.949 37.4629L260.332 42.5371ZM493 419.305V417.695H483V419.305H493ZM483.692 415.158L260.332 794.463L268.949 799.537L492.308 420.232L483.692 415.158ZM268.949 794.463L44.3087 412.908L35.6913 417.981L260.331 799.537L268.949 794.463Z" fill="white" mask="url(#path-1-inside-1_311:92)"/>
</g>
<defs>
<filter id="filter0_d_311:92" x="0" y="0" width="528" height="837" filterUnits="userSpaceOnUse" color-interpolation-filters="sRGB">
<feFlood flood-opacity="0" result="BackgroundImageFix"/>
<feColorMatrix in="SourceAlpha" type="matrix" values="0 0 0 0 0 0 0 0 0 0 0 0 0 0 0 0 0 0 127 0" result="hardAlpha"/>
<feMorphology radius="10" operator="dilate" in="SourceAlpha" result="effect1_dropShadow_311:92"/>
<feOffset/>
<feGaussianBlur stdDeviation="15"/>
<feComposite in2="hardAlpha" operator="out"/>
<feColorMatrix type="matrix" values="0 0 0 0 1 0 0 0 0 1 0 0 0 0 1 0 0 0 0.3 0"/>
<feBlend mode="normal" in2="BackgroundImageFix" result="effect1_dropShadow_311:92"/>
<feBlend mode="normal" in="SourceGraphic" in2="effect1_dropShadow_311:92" result="shape"/>
</filter>
</defs>
</svg>
