<svg width="273" height="460" viewBox="0 0 273 460" fill="none" xmlns="http://www.w3.org/2000/svg">
<mask id="path-1-inside-1_309:486" fill="white">
<path d="M0 232.052L136.89 0L273 230.489V229.511L136.89 460L0 228.143"/>
</mask>
<path d="M136.89 0L137.579 -0.406788L136.89 -1.57391L136.201 -0.406473L136.89 0ZM273 230.489L272.311 230.896L273.8 233.417V230.489H273ZM273 229.511H273.8V226.583L272.311 229.104L273 229.511ZM136.89 460L136.201 460.407L136.89 461.573L137.579 460.407L136.89 460ZM0.689042 232.459L137.579 0.406473L136.201 -0.406473L-0.689042 231.646L0.689042 232.459ZM136.201 0.406788L272.311 230.896L273.689 230.082L137.579 -0.406788L136.201 0.406788ZM273.8 230.489V229.511H272.2V230.489H273.8ZM272.311 229.104L136.201 459.593L137.579 460.407L273.689 229.918L272.311 229.104ZM137.579 459.593L0.688892 227.737L-0.688892 228.55L136.201 460.407L137.579 459.593Z" fill="url(#paint0_radial_309:486)" mask="url(#path-1-inside-1_309:486)"/>
<defs>
<radialGradient id="paint0_radial_309:486" cx="0" cy="0" r="1" gradientUnits="userSpaceOnUse" gradientTransform="translate(136.5 230) rotate(90) scale(230 136.5)">
<stop stop-color="white"/>
<stop offset="1" stop-color="white" stop-opacity="0"/>
</radialGradient>
</defs>
</svg>
